<?xml version="1.0" encoding="UTF-8" standalone="no"?>
<!DOCTYPE svg PUBLIC "-//W3C//DTD SVG 1.1//EN"
 "http://www.w3.org/Graphics/SVG/1.1/DTD/svg11.dtd">
<!-- Generated by graphviz version 2.38.0 (20140413.2041)
 -->
<!-- Title: %3 Pages: 1 -->
<svg width="241pt" height="263pt"
 viewBox="0.00 0.00 240.58 262.69" xmlns="http://www.w3.org/2000/svg" xmlns:xlink="http://www.w3.org/1999/xlink">
<g id="graph0" class="graph" transform="scale(1 1) rotate(0) translate(4 258.693)">
<title>%3</title>
<polygon fill="white" stroke="none" points="-4,4 -4,-258.693 236.579,-258.693 236.579,4 -4,4"/>
<!-- distance -->
<g id="node1" class="node"><title>distance</title>
<polygon fill="lightgray" stroke="black" points="46,-254.693 0,-254.693 0,-236.693 46,-236.693 46,-254.693"/>
<text text-anchor="middle" x="23" y="-243.493" font-family="Times New Roman,serif" font-size="9.00">distance</text>
</g>
<!-- a_set -->
<g id="node5" class="node"><title>a_set</title>
<ellipse fill="lightblue" stroke="black" cx="109" cy="-24.7487" rx="25" ry="25"/>
<text text-anchor="middle" x="109" y="-22.5487" font-family="Times New Roman,serif" font-size="9.00">a_set</text>
</g>
<!-- distance&#45;&gt;a_set -->
<g id="edge1" class="edge"><title>distance&#45;&gt;a_set</title>
<path fill="none" stroke="green" stroke-width="0.312029" d="M22.3712,-236.516C20.8522,-212.041 18.9123,-137.824 46,-85.4975 54.1291,-69.7942 68.0362,-55.9368 80.7194,-45.5308"/>
<polygon fill="green" stroke="green" stroke-width="0.312029" points="83.0843,-48.1245 88.8042,-39.2063 78.7713,-42.611 83.0843,-48.1245"/>
</g>
<!-- 66 -->
<g id="node6" class="node"><title>66</title>
<ellipse fill="white" stroke="black" cx="80" cy="-182.309" rx="18.2703" ry="18.2703"/>
<text text-anchor="middle" x="80" y="-180.109" font-family="Times New Roman,serif" font-size="9.00">66</text>
</g>
<!-- distance&#45;&gt;66 -->
<g id="edge7" class="edge"><title>distance&#45;&gt;66</title>
<path fill="none" stroke="green" stroke-width="0.287336" d="M30.4518,-236.668C38.1997,-228.325 50.6367,-214.931 61.1117,-203.65"/>
<polygon fill="green" stroke="green" stroke-width="0.287336" points="63.7286,-205.975 67.9684,-196.266 58.599,-201.212 63.7286,-205.975"/>
</g>
<!-- v_ego -->
<g id="node2" class="node"><title>v_ego</title>
<polygon fill="lightgray" stroke="black" points="215,-115.711 177,-115.711 177,-97.7107 215,-97.7107 215,-115.711"/>
<text text-anchor="middle" x="196" y="-104.511" font-family="Times New Roman,serif" font-size="9.00">v_ego</text>
</g>
<!-- v_ego&#45;&gt;a_set -->
<g id="edge2" class="edge"><title>v_ego&#45;&gt;a_set</title>
<path fill="none" stroke="green" stroke-width="0.11264" d="M187.017,-97.4545C174.744,-86.1739 152.238,-65.4893 134.542,-49.2248"/>
<polygon fill="green" stroke="green" stroke-width="0.11264" points="136.535,-46.3027 126.804,-42.1126 131.798,-51.4565 136.535,-46.3027"/>
</g>
<!-- v_prec -->
<g id="node3" class="node"><title>v_prec</title>
<polygon fill="lightgray" stroke="black" points="131.5,-254.693 90.5,-254.693 90.5,-236.693 131.5,-236.693 131.5,-254.693"/>
<text text-anchor="middle" x="111" y="-243.493" font-family="Times New Roman,serif" font-size="9.00">v_prec</text>
</g>
<!-- v_prec&#45;&gt;a_set -->
<g id="edge10" class="edge"><title>v_prec&#45;&gt;a_set</title>
<path fill="none" stroke="red" stroke-width="0.113924" d="M124.746,-236.688C162.186,-213.836 260.772,-146.042 224,-85.4975 206.601,-56.8506 170.51,-41.3114 143.373,-33.3254"/>
<polygon fill="red" stroke="red" stroke-width="0.113924" points="144.037,-29.8787 133.468,-30.6229 142.194,-36.6318 144.037,-29.8787"/>
</g>
<!-- v_prec&#45;&gt;66 -->
<g id="edge3" class="edge"><title>v_prec&#45;&gt;66</title>
<path fill="none" stroke="green" stroke-width="0.494038" d="M106.947,-236.668C103.278,-229.403 97.6755,-218.309 92.5274,-208.115"/>
<polygon fill="green" stroke="green" stroke-width="0.494038" points="95.628,-206.49 87.9959,-199.142 89.3796,-209.646 95.628,-206.49"/>
</g>
<!-- v_allowed -->
<g id="node4" class="node"><title>v_allowed</title>
<polygon fill="lightgray" stroke="black" points="202.5,-254.693 149.5,-254.693 149.5,-236.693 202.5,-236.693 202.5,-254.693"/>
<text text-anchor="middle" x="176" y="-243.493" font-family="Times New Roman,serif" font-size="9.00">v_allowed</text>
</g>
<!-- 66&#45;&gt;a_set -->
<g id="edge4" class="edge"><title>66&#45;&gt;a_set</title>
<path fill="none" stroke="green" stroke-width="0.961697" stroke-dasharray="1,5" d="M70.061,-166.723C58.3905,-147.674 41.9438,-113.461 53,-85.4975 58.946,-70.4585 70.6643,-56.9878 81.8513,-46.6608"/>
<polygon fill="green" stroke="green" stroke-width="0.961697" points="84.208,-49.2495 89.4337,-40.0331 79.6011,-43.9791 84.208,-49.2495"/>
</g>
<!-- 96 -->
<g id="node7" class="node"><title>96</title>
<ellipse fill="white" stroke="black" cx="80" cy="-106.711" rx="18.2703" ry="18.2703"/>
<text text-anchor="middle" x="80" y="-104.511" font-family="Times New Roman,serif" font-size="9.00">96</text>
</g>
<!-- 66&#45;&gt;96 -->
<g id="edge5" class="edge"><title>66&#45;&gt;96</title>
<path fill="none" stroke="red" stroke-width="0.189103" d="M80,-163.867C80,-155.405 80,-145.033 80,-135.516"/>
<polygon fill="red" stroke="red" stroke-width="0.189103" points="83.5001,-135.282 80,-125.282 76.5001,-135.282 83.5001,-135.282"/>
</g>
<!-- 206 -->
<g id="node8" class="node"><title>206</title>
<ellipse fill="white" stroke="black" cx="138" cy="-106.711" rx="21.4286" ry="21.4286"/>
<text text-anchor="middle" x="138" y="-104.511" font-family="Times New Roman,serif" font-size="9.00">206</text>
</g>
<!-- 66&#45;&gt;206 -->
<g id="edge8" class="edge"><title>66&#45;&gt;206</title>
<path fill="none" stroke="green" stroke-width="0.498494" d="M90.9094,-167.465C98.7782,-157.48 109.606,-143.741 118.895,-131.954"/>
<polygon fill="green" stroke="green" stroke-width="0.498494" points="121.881,-133.819 125.322,-123.798 116.383,-129.486 121.881,-133.819"/>
</g>
<!-- 96&#45;&gt;a_set -->
<g id="edge6" class="edge"><title>96&#45;&gt;a_set</title>
<path fill="none" stroke="red" stroke-width="0.516225" d="M86.0088,-89.1425C89.2859,-80.1065 93.4565,-68.6069 97.3434,-57.8897"/>
<polygon fill="red" stroke="red" stroke-width="0.516225" points="100.68,-58.9545 100.799,-48.3603 94.0996,-56.5679 100.68,-58.9545"/>
</g>
<!-- 206&#45;&gt;a_set -->
<g id="edge9" class="edge"><title>206&#45;&gt;a_set</title>
<path fill="none" stroke="green" stroke-width="0.800848" d="M130.98,-86.3541C127.894,-77.8466 124.187,-67.6235 120.703,-58.0176"/>
<polygon fill="green" stroke="green" stroke-width="0.800848" points="123.889,-56.5362 117.189,-48.3287 117.308,-58.9228 123.889,-56.5362"/>
</g>
</g>
</svg>
